<svg width="24" height="24" viewBox="0 0 24 24" fill="none" xmlns="http://www.w3.org/2000/svg">
<path fill-rule="evenodd" clip-rule="evenodd" d="M15.375 20.1001C15.1977 20.1002 15.0222 20.0653 14.8585 19.9973C14.6948 19.9293 14.5461 19.8297 14.421 19.7041L7.671 12.9541C7.54559 12.8287 7.44611 12.6799 7.37824 12.5161C7.31037 12.3523 7.27544 12.1767 7.27544 11.9993C7.27544 11.822 7.31037 11.6464 7.37824 11.4826C7.44611 11.3188 7.54559 11.17 7.671 11.0446L14.421 4.2946C14.5454 4.16487 14.6944 4.06129 14.8593 3.98992C15.0243 3.91855 15.2018 3.88083 15.3815 3.87898C15.5612 3.87712 15.7395 3.91117 15.9059 3.97912C16.0723 4.04707 16.2234 4.14756 16.3504 4.27469C16.4775 4.40182 16.5778 4.55303 16.6456 4.71946C16.7135 4.88589 16.7474 5.06419 16.7454 5.2439C16.7434 5.42361 16.7055 5.60111 16.634 5.76599C16.5625 5.93087 16.4588 6.07982 16.329 6.2041L10.5345 12.0001L16.329 17.7946C16.5181 17.9833 16.6469 18.2239 16.6992 18.4859C16.7515 18.7478 16.7249 19.0194 16.6227 19.2663C16.5206 19.5131 16.3475 19.7241 16.1254 19.8725C15.9033 20.021 15.6421 20.1002 15.375 20.1001Z" fill="white"/>
</svg>
