<svg width="22" height="22" viewBox="0 0 22 22" fill="none" xmlns="http://www.w3.org/2000/svg">
<path fill-rule="evenodd" clip-rule="evenodd" d="M5.158 20.2463C5.17795 20.4747 5.28277 20.6873 5.45178 20.8422C5.62079 20.9972 5.84173 21.0831 6.071 21.0832H16.1204C16.3497 21.0831 16.5706 20.9972 16.7396 20.8422C16.9087 20.6873 17.0135 20.4747 17.0334 20.2463L17.2644 17.5934L17.9217 10.0548L18.028 8.82825H4.16342L5.158 20.2463ZM19.0703 4.15234H17.6063L16.6081 1.527C16.5397 1.34751 16.4184 1.19301 16.2603 1.08399C16.1022 0.974967 15.9147 0.916559 15.7226 0.916504H6.46975C6.07558 0.916504 5.72358 1.15942 5.58333 1.527L4.58508 4.15234H2.9305C2.80894 4.15234 2.69236 4.20063 2.60641 4.28658C2.52046 4.37253 2.47217 4.48911 2.47217 4.61067V6.53659C2.47217 6.65815 2.52046 6.77472 2.60641 6.86068C2.69236 6.94663 2.80894 6.99492 2.9305 6.99492H19.0703C19.1918 6.99492 19.3084 6.94663 19.3943 6.86068C19.4803 6.77472 19.5286 6.65815 19.5286 6.53659V4.61067C19.5286 4.48911 19.4803 4.37253 19.3943 4.28658C19.3084 4.20063 19.1918 4.15234 19.0703 4.15234Z" fill="#8B95A1"/>
</svg>
