<svg width="18" height="18" viewBox="0 0 18 18" fill="none" xmlns="http://www.w3.org/2000/svg">
<path fill-rule="evenodd" clip-rule="evenodd" d="M9.27919 3.54457L1.72753 11.0962L0.697526 14.9379L0.0200261 17.4687C0.00120797 17.5394 0.0013019 17.6139 0.0202985 17.6845C0.0392951 17.7552 0.0765272 17.8196 0.128264 17.8713C0.180002 17.9231 0.244427 17.9603 0.315085 17.9793C0.385744 17.9983 0.460153 17.9984 0.530859 17.9796L3.06003 17.3012L6.90253 16.2712H6.90336L14.455 8.71957L9.28003 3.54457H9.27919ZM17.5775 4.41957L13.5809 0.422069C13.5035 0.344614 13.4117 0.283166 13.3106 0.24124C13.2095 0.199315 13.1011 0.177734 12.9917 0.177734C12.8822 0.177734 12.7739 0.199315 12.6728 0.24124C12.5717 0.283166 12.4798 0.344614 12.4025 0.422069L10.34 2.48374L15.5159 7.65957L17.5775 5.59707C17.655 5.51975 17.7164 5.42791 17.7584 5.32681C17.8003 5.22572 17.8219 5.11735 17.8219 5.0079C17.8219 4.89846 17.8003 4.79009 17.7584 4.68899C17.7164 4.5879 17.655 4.49606 17.5775 4.41874" fill="white"/>
</svg>
