<svg width="24" height="24" viewBox="0 0 24 24" fill="none" xmlns="http://www.w3.org/2000/svg">
<path fill-rule="evenodd" clip-rule="evenodd" d="M10.904 21.5267C11.57 21.9667 12.429 21.9667 13.094 21.5267C15.209 20.1307 19.814 16.7937 21.798 13.0597C24.413 8.1337 21.342 3.2207 17.282 3.2207C14.968 3.2207 13.576 4.4297 12.806 5.4687C12.7135 5.59596 12.5922 5.69952 12.4521 5.77093C12.3119 5.84233 12.1568 5.87956 11.9995 5.87956C11.8422 5.87956 11.6871 5.84233 11.5469 5.77093C11.4068 5.69952 11.2855 5.59596 11.193 5.4687C10.423 4.4297 9.031 3.2207 6.717 3.2207C2.657 3.2207 -0.414 8.1337 2.202 13.0597C4.184 16.7937 8.791 20.1307 10.904 21.5267Z" fill="white"/>
</svg>
