<svg width="13" height="9" viewBox="0 0 13 9" fill="none" xmlns="http://www.w3.org/2000/svg">
<path fill-rule="evenodd" clip-rule="evenodd" d="M6.75675 0.430461C6.69664 0.340293 6.59544 0.286133 6.48707 0.286133C6.3787 0.286133 6.27751 0.340293 6.21739 0.430461L3.82057 4.0257L0.855464 1.65362C0.749089 1.56852 0.600854 1.55902 0.484485 1.62984C0.368116 1.70066 0.308453 1.83669 0.335169 1.97028L1.63163 8.45259C1.66193 8.60409 1.79495 8.71314 1.94945 8.71314H11.0247C11.1792 8.71314 11.3122 8.60409 11.3425 8.45259L12.639 1.97028C12.6657 1.83669 12.606 1.70066 12.4897 1.62984C12.3733 1.55902 12.2251 1.56852 12.1187 1.65362L9.15358 4.0257L6.75675 0.430461Z" fill="white" fill-opacity="0.56"/>
</svg>
