<svg width="24" height="24" viewBox="0 0 24 24" fill="none" xmlns="http://www.w3.org/2000/svg">
<path fill-rule="evenodd" clip-rule="evenodd" d="M16.9799 12.747C16.7747 12.7522 16.5705 12.7162 16.3794 12.6412C16.1883 12.5662 16.0142 12.4538 15.8673 12.3104C15.7203 12.1671 15.6035 11.9958 15.5238 11.8066C15.4441 11.6175 15.4031 11.4143 15.4032 11.209C15.4033 11.0037 15.4444 10.8005 15.5242 10.6114C15.6041 10.4223 15.7209 10.2511 15.868 10.1078C16.015 9.96459 16.1892 9.85223 16.3804 9.77738C16.5715 9.70253 16.7757 9.6667 16.9809 9.672C17.3819 9.68236 17.7629 9.84895 18.0428 10.1363C18.3227 10.4236 18.4793 10.8089 18.4792 11.21C18.4791 11.6111 18.3222 11.9963 18.0421 12.2834C17.7621 12.5706 17.3809 12.7369 16.9799 12.747ZM12.0659 12.747C11.8606 12.7522 11.6563 12.7162 11.465 12.6412C11.2738 12.5661 11.0996 12.4536 10.9525 12.3102C10.8055 12.1667 10.6887 11.9953 10.6089 11.806C10.5292 11.6167 10.4881 11.4134 10.4882 11.208C10.4882 11.0026 10.5294 10.7993 10.6093 10.61C10.6892 10.4208 10.8061 10.2495 10.9533 10.1061C11.1004 9.96279 11.2747 9.85036 11.466 9.77546C11.6572 9.70055 11.8616 9.6647 12.0669 9.67C12.4681 9.68036 12.8495 9.84706 13.1295 10.1346C13.4096 10.4221 13.5663 10.8076 13.5662 11.209C13.566 11.6104 13.4091 11.9958 13.1288 12.2831C12.8486 12.5704 12.4671 12.7369 12.0659 12.747ZM7.1509 12.747C6.94569 12.7522 6.74152 12.7162 6.55043 12.6412C6.35934 12.5662 6.18519 12.4538 6.03825 12.3104C5.89131 12.1671 5.77455 11.9958 5.69485 11.8066C5.61515 11.6175 5.57412 11.4143 5.57419 11.209C5.57425 11.0037 5.61541 10.8005 5.69524 10.6114C5.77506 10.4223 5.89193 10.2511 6.03897 10.1078C6.186 9.96459 6.36022 9.85223 6.55136 9.77738C6.7425 9.70253 6.94669 9.6667 7.1519 9.672C7.55288 9.68236 7.93395 9.84895 8.21384 10.1363C8.49374 10.4236 8.65032 10.8089 8.65019 11.21C8.65006 11.6111 8.49323 11.9963 8.21314 12.2834C7.93306 12.5706 7.55188 12.7369 7.1509 12.747ZM11.9999 1.5C6.1669 1.5 1.4209 5.814 1.4209 11.117C1.4209 13.387 2.3809 16.476 5.0549 18.47L4.7399 21.764C4.72807 21.8854 4.7495 22.0077 4.80189 22.1178C4.85427 22.228 4.93565 22.3218 5.03728 22.3892C5.13891 22.4566 5.25698 22.4951 5.37881 22.5005C5.50065 22.5059 5.62167 22.4781 5.7289 22.42L9.1599 20.574C9.5869 20.618 10.8409 20.734 11.9999 20.734C17.8329 20.734 22.5789 16.42 22.5789 11.117C22.5789 5.814 17.8329 1.5 11.9999 1.5Z" fill="white"/>
</svg>
