<svg width="12" height="13" viewBox="0 0 12 13" fill="none" xmlns="http://www.w3.org/2000/svg">
<path fill-rule="evenodd" clip-rule="evenodd" d="M8.44359 3.82225C8.44362 4.14366 8.38034 4.46193 8.25738 4.75889C8.13441 5.05584 7.95415 5.32567 7.72691 5.55297C7.49966 5.78026 7.22987 5.96057 6.93293 6.0836C6.636 6.20663 6.31775 6.26997 5.99634 6.27C5.34722 6.27007 4.72466 6.01227 4.26562 5.55332C3.80658 5.09437 3.54865 4.47187 3.54859 3.82275C3.54855 3.50134 3.61183 3.18307 3.7348 2.88611C3.85776 2.58916 4.03802 2.31933 4.26526 2.09203C4.72421 1.63299 5.34672 1.37507 5.99584 1.375C6.64495 1.37493 7.26751 1.63273 7.72655 2.09168C8.1856 2.55063 8.44352 3.17313 8.44359 3.82225M5.99609 7.01875C2.47159 7.01875 1.10059 9.26175 1.10059 10.3053C1.10059 11.3483 4.01909 11.6263 5.99609 11.6263C7.97309 11.6263 10.8916 11.3483 10.8916 10.3053C10.8916 9.26175 9.52059 7.01875 5.99609 7.01875Z" fill="white"/>
</svg>
