<svg width="14" height="14" viewBox="0 0 14 14" fill="none" xmlns="http://www.w3.org/2000/svg">
<path fill-rule="evenodd" clip-rule="evenodd" d="M6.99998 5.36683C6.81433 5.36683 6.63628 5.29308 6.50501 5.1618C6.37373 5.03053 6.29998 4.85248 6.29998 4.66683C6.29998 4.48118 6.37373 4.30313 6.50501 4.17186C6.63628 4.04058 6.81433 3.96683 6.99998 3.96683C7.18563 3.96683 7.36368 4.04058 7.49495 4.17186C7.62623 4.30313 7.69998 4.48118 7.69998 4.66683C7.69998 4.85248 7.62623 5.03053 7.49495 5.1618C7.36368 5.29308 7.18563 5.36683 6.99998 5.36683V5.36683ZM7.58331 9.70391C7.58331 9.85862 7.52186 10.007 7.41246 10.1164C7.30306 10.2258 7.15469 10.2872 6.99998 10.2872C6.84527 10.2872 6.6969 10.2258 6.5875 10.1164C6.4781 10.007 6.41665 9.85862 6.41665 9.70391V6.78725C6.41665 6.63254 6.4781 6.48416 6.5875 6.37477C6.6969 6.26537 6.84527 6.20391 6.99998 6.20391C7.15469 6.20391 7.30306 6.26537 7.41246 6.37477C7.52186 6.48416 7.58331 6.63254 7.58331 6.78725V9.70391ZM6.99998 0.583496C3.45623 0.583496 0.583313 3.45641 0.583313 7.00016C0.583313 10.5439 3.45623 13.4168 6.99998 13.4168C10.5437 13.4168 13.4166 10.5439 13.4166 7.00016C13.4166 3.45641 10.5437 0.583496 6.99998 0.583496Z" fill="#8E96A0"/>
</svg>
