<svg width="20" height="20" viewBox="0 0 20 20" fill="none" xmlns="http://www.w3.org/2000/svg">
<path fill-rule="evenodd" clip-rule="evenodd" d="M14.3392 8.51217L9.68671 13.1655C9.52997 13.3212 9.31803 13.4085 9.09712 13.4085C8.87622 13.4085 8.66428 13.3212 8.50754 13.1655L5.66087 10.3188C5.5835 10.2415 5.52213 10.1496 5.48026 10.0485C5.43839 9.94744 5.41683 9.83909 5.41683 9.72967C5.41683 9.50869 5.50462 9.29676 5.66087 9.14051C5.81713 8.98425 6.02906 8.89647 6.25004 8.89647C6.47102 8.89647 6.68295 8.98425 6.83921 9.14051L9.09671 11.398L13.1609 7.33384C13.2382 7.25647 13.3301 7.1951 13.4312 7.15322C13.5323 7.11135 13.6406 7.0898 13.75 7.0898C13.8595 7.0898 13.9678 7.11135 14.0689 7.15322C14.17 7.1951 14.2618 7.25647 14.3392 7.33384C14.4166 7.41121 14.478 7.50306 14.5198 7.60415C14.5617 7.70524 14.5832 7.81359 14.5832 7.92301C14.5832 8.03243 14.5617 8.14077 14.5198 8.24186C14.478 8.34295 14.4166 8.4348 14.3392 8.51217M10 0.833008C4.93754 0.833008 0.833374 4.93717 0.833374 9.99967C0.833374 15.0622 4.93754 19.1663 10 19.1663C15.0625 19.1663 19.1667 15.0622 19.1667 9.99967C19.1667 4.93717 15.0625 0.833008 10 0.833008Z" fill="white" fill-opacity="0.5"/>
</svg>
