<svg width="22" height="22" viewBox="0 0 22 22" fill="none" xmlns="http://www.w3.org/2000/svg">
<path fill-rule="evenodd" clip-rule="evenodd" d="M11 14.667C10.5185 14.667 10.0417 14.5722 9.59688 14.3879C9.15204 14.2036 8.74785 13.9336 8.40738 13.5931C8.06692 13.2526 7.79685 12.8484 7.61259 12.4036C7.42833 11.9588 7.33349 11.482 7.33349 11.0005C7.33349 10.519 7.42833 10.0422 7.61259 9.59739C7.79685 9.15255 8.06692 8.74836 8.40738 8.40789C8.74785 8.06743 9.15204 7.79735 9.59688 7.6131C10.0417 7.42884 10.5185 7.334 11 7.334C11.9724 7.334 12.905 7.72029 13.5926 8.40789C14.2802 9.0955 14.6665 10.0281 14.6665 11.0005C14.6665 11.9729 14.2802 12.9055 13.5926 13.5931C12.905 14.2807 11.9724 14.667 11 14.667ZM20.033 12.952C19.53 12.4311 19.2492 11.7351 19.25 11.011V10.99C19.2492 10.2659 19.53 9.56988 20.033 9.049L20.972 8.079C21.358 7.679 21.432 7.071 21.155 6.59L19.897 4.412C19.762 4.17755 19.5542 3.9935 19.3052 3.88775C19.0562 3.78201 18.7794 3.76033 18.517 3.826L17.202 4.154C16.4958 4.3308 15.7485 4.2242 15.12 3.857L15.102 3.847C14.4829 3.48722 14.0274 2.90155 13.831 2.213L13.455 0.904C13.3809 0.643683 13.2239 0.414617 13.0079 0.251495C12.7919 0.0883743 12.5287 8.4899e-05 12.258 0H9.74199C9.18699 0 8.69699 0.369 8.54499 0.904L8.13999 2.313C7.96217 2.94272 7.54417 3.47743 6.97599 3.802C6.91731 3.83482 6.85929 3.86882 6.80199 3.904C6.2319 4.2435 5.55057 4.34345 4.90699 4.182L3.48199 3.826C3.21964 3.76041 2.94307 3.78202 2.69409 3.88756C2.44512 3.99311 2.23727 4.17685 2.10199 4.411L0.844993 6.59C0.709791 6.82444 0.654525 7.09649 0.687537 7.3651C0.720549 7.6337 0.840047 7.88428 1.02799 8.079L1.96699 9.049C2.46999 9.57 2.75099 10.266 2.75099 10.989V11.011C2.75099 11.735 2.46999 12.431 1.96699 12.952L1.46399 13.472C1.15032 13.7963 0.950792 14.214 0.895583 14.6618C0.840373 15.1096 0.932487 15.5632 1.15799 15.954L2.10299 17.589C2.38099 18.071 2.94299 18.31 3.48299 18.175L4.90799 17.819C5.55157 17.6576 6.2329 17.7575 6.80299 18.097C6.85999 18.132 6.91799 18.166 6.97699 18.199C7.54599 18.521 7.96099 19.058 8.14099 19.688L8.54499 21.097C8.69699 21.632 9.18699 22 9.74199 22H12.258C12.813 22 13.303 21.632 13.455 21.097L13.859 19.688C14.039 19.058 14.454 18.521 15.023 18.199C15.082 18.166 15.14 18.132 15.197 18.097C15.7671 17.7575 16.4484 17.6576 17.092 17.819L18.517 18.175C18.7793 18.2406 19.0559 18.219 19.3049 18.1134C19.5539 18.0079 19.7617 17.8242 19.897 17.59L21.155 15.411C21.2902 15.1766 21.3455 14.9045 21.3124 14.6359C21.2794 14.3673 21.1599 14.1167 20.972 13.922L20.032 12.952H20.033Z" fill="#8B95A1"/>
</svg>
