<svg width="118" height="38" viewBox="0 0 118 38" fill="none" xmlns="http://www.w3.org/2000/svg">
<path fill-rule="evenodd" clip-rule="evenodd" d="M6 0C2.68629 0 0 2.68629 0 6V32C0 35.3137 2.68629 38 6 38H82C85.3137 38 88 35.3137 88 32C88 35.3137 90.6863 38 94 38H112C115.314 38 118 35.3137 118 32V6C118 2.68629 115.314 0 112 0H94C90.6863 0 88 2.68629 88 6C88 2.68629 85.3137 0 82 0H6Z" fill="#007AFF"/>
<path d="M30.4492 11.5508H28.0234V17.6328H26.8281V11.7617H24.4375V26.9668H26.8281V19.6895H28.0234V27.6875H30.4492V11.5508ZM16.8262 23.7148H23.3125V13.168H16.8262V23.7148ZM19.1992 21.7461V15.1367H20.957V21.7461H19.1992ZM37.2862 20.6738H34.7726V23.8379H31.2394V25.8594H45.9874V23.8379H42.419V20.6738H39.9054V23.8379H37.2862V20.6738ZM31.5206 18.5117L32.5401 20.6035C35.4405 20.1289 37.4444 18.7139 38.5079 16.8682C39.5538 18.7139 41.5665 20.1113 44.5108 20.6035L45.5128 18.5117C41.5753 17.9316 39.8614 15.585 39.8702 13.5371V12.3945H37.1632V13.5371C37.1456 15.5498 35.4317 17.9141 31.5206 18.5117ZM46.9182 22.6602H49.1154C49.0978 21.6318 49.5197 21.2363 50.0822 21.2363C50.5041 21.2363 50.7062 21.4297 51.1896 21.8516C52.051 22.6162 52.7189 22.9326 53.5451 22.9238C55.2853 22.9326 56.3752 21.5 56.2873 19.0742H54.0725C54.0988 20.0674 53.6682 20.4893 53.1232 20.4805C52.675 20.4893 52.4201 20.2432 51.9807 19.8652C51.0666 19.0566 50.4162 18.793 49.6603 18.793C47.8586 18.793 46.8215 20.2256 46.9182 22.6602ZM63.8802 13.0098V12.2012H61.2259V13.0098C61.2259 14.7148 60.18 16.4111 57.3763 17.0527L58.554 19.0215C60.5227 18.5469 61.8323 17.4834 62.5706 16.1123C63.3001 17.3604 64.5745 18.292 66.4993 18.7402L67.6243 16.7539C64.8733 16.1738 63.8626 14.6357 63.8802 13.0098ZM57.3059 19.8828L57.6048 21.9395C58.7122 21.9395 59.9778 21.9307 61.3138 21.8779V27.2129H63.845V21.7197C65.1194 21.6055 66.4202 21.4385 67.677 21.1836L67.5013 19.373C64.1175 19.8652 60.1448 19.9004 57.3059 19.8828ZM68.3977 27.6699H70.929V11.5684H68.3977V27.6699ZM85.1664 15.8047H76.3422V12.1309H73.8285V17.7734H85.1664V15.8047ZM72.0355 21.3242H86.7836V19.3379H72.0355V21.3242ZM73.6703 27.3359H85.2719V25.3145H76.2015V22.5371H73.6703V27.3359ZM95.1147 12.4473H87.4155V20.4805H88.8042C92.0473 20.4893 94.0337 20.4277 96.187 20.0586L95.9057 18.0723C94.0952 18.4238 92.4428 18.5029 89.9819 18.5117V17.457H94.7632V15.4707H89.9819V14.4688H95.1147V12.4473ZM89.0678 27.5117H99.7202V21.623H89.0678V27.5117ZM91.5639 25.4902V23.5918H97.2241V25.4902H91.5639ZM97.1889 20.9727H99.7202V17.334H101.812V15.2422H99.7202V11.5508H97.1889V20.9727Z" fill="white"/>
</svg>
