<svg width="18" height="22" viewBox="0 0 18 22" fill="none" xmlns="http://www.w3.org/2000/svg">
<path fill-rule="evenodd" clip-rule="evenodd" d="M8.99992 0C8.49366 0 8.08325 0.410406 8.08325 0.916667V3.48483C6.04873 3.69454 4.13709 4.59768 2.67829 6.05737C1.00338 7.7333 0.0625114 10.0057 0.0625 12.3751C0.0624886 14.7445 1.00334 17.017 2.67823 18.6929C4.35312 20.3689 6.62497 21.3112 8.99437 21.3126L8.99807 21.3159L9.00176 21.3126C11.3707 21.309 13.6414 20.3661 15.3162 18.6907C16.9909 17.0152 17.9329 14.7441 17.9356 12.3752C17.9329 10.0063 16.9909 7.73508 15.3161 6.05967C13.8584 4.60136 11.9491 3.69802 9.91658 3.486V0.916666C9.91658 0.410406 9.50618 0 8.99992 0ZM13.1041 11.6877H16.529C16.3797 10.0801 15.7211 8.56227 14.6489 7.35521C13.5768 6.14816 12.1473 5.315 10.5686 4.97712C12.0719 6.78773 12.9673 9.14075 13.1041 11.6877ZM8.99807 19.46C10.5833 17.8496 11.5703 15.5339 11.7258 13.0627H6.27031C6.42582 15.5339 7.4128 17.8496 8.99807 19.46ZM8.99807 5.29037C7.4128 6.90065 6.42582 9.21638 6.27031 11.6877L11.7258 11.6877C11.5703 9.21639 10.5833 6.90065 8.99807 5.29037ZM13.1041 13.0627C12.9673 15.6095 12.0718 17.9626 10.5685 19.7732C12.1472 19.4354 13.5768 18.6022 14.6489 17.3951C15.7211 16.1881 16.3797 14.6702 16.529 13.0627H13.1041Z" fill="white"/>
</svg>
