<svg width="16" height="17" viewBox="0 0 16 17" fill="none" xmlns="http://www.w3.org/2000/svg">
<g clip-path="url(#clip0_614_17869)">
<path fill-rule="evenodd" clip-rule="evenodd" d="M10.8046 10.3623C10.8665 10.4242 10.9156 10.4977 10.9491 10.5786C10.9826 10.6594 10.9999 10.7461 10.9999 10.8337C10.9999 10.9212 10.9826 11.0079 10.9491 11.0887C10.9156 11.1696 10.8665 11.2431 10.8046 11.305C10.7427 11.3669 10.6692 11.416 10.5884 11.4495C10.5075 11.483 10.4208 11.5002 10.3333 11.5002C10.2458 11.5002 10.1591 11.483 10.0782 11.4495C9.99734 11.416 9.92386 11.3669 9.86196 11.305L7.99996 9.44299L6.13796 11.305C6.07619 11.3671 6.00275 11.4164 5.92186 11.4501C5.84097 11.4837 5.75423 11.501 5.66663 11.501C5.57902 11.501 5.49228 11.4837 5.41139 11.4501C5.3305 11.4164 5.25706 11.3671 5.19529 11.305C5.13333 11.2431 5.08417 11.1697 5.05063 11.0888C5.01709 11.0079 4.99983 10.9212 4.99983 10.8337C4.99983 10.7461 5.01709 10.6594 5.05063 10.5785C5.08417 10.4977 5.13333 10.4242 5.19529 10.3623L7.05729 8.50033L5.19529 6.63833C5.1334 6.57643 5.0843 6.50295 5.0508 6.42208C5.0173 6.3412 5.00006 6.25453 5.00006 6.16699C5.00006 6.07946 5.0173 5.99278 5.0508 5.91191C5.0843 5.83104 5.1334 5.75756 5.19529 5.69566C5.25719 5.63376 5.33067 5.58466 5.41154 5.55117C5.49241 5.51767 5.57909 5.50043 5.66663 5.50043C5.75416 5.50043 5.84084 5.51767 5.92171 5.55117C6.00258 5.58466 6.07606 5.63376 6.13796 5.69566L7.99996 7.55766L9.86196 5.69566C9.92386 5.63376 9.99734 5.58466 10.0782 5.55117C10.1591 5.51767 10.2458 5.50043 10.3333 5.50043C10.4208 5.50043 10.5075 5.51767 10.5884 5.55117C10.6692 5.58466 10.7427 5.63376 10.8046 5.69566C10.8665 5.75756 10.9156 5.83104 10.9491 5.91191C10.9826 5.99278 10.9999 6.07946 10.9999 6.16699C10.9999 6.25453 10.9826 6.3412 10.9491 6.42208C10.9156 6.50295 10.8665 6.57643 10.8046 6.63833L8.94263 8.50033L10.8046 10.3623ZM7.99996 1.16699C3.94996 1.16699 0.666626 4.45033 0.666626 8.50033C0.666626 12.5503 3.94996 15.8337 7.99996 15.8337C12.05 15.8337 15.3333 12.5503 15.3333 8.50033C15.3333 4.45033 12.05 1.16699 7.99996 1.16699Z" fill="#C9CDD1"/>
</g>
<defs>
<clipPath id="clip0_614_17869">
<rect width="16" height="16" fill="white" transform="translate(0 0.5)"/>
</clipPath>
</defs>
</svg>
